<?xml version="1.0" standalone="no"?>
<!DOCTYPE svg PUBLIC "-//W3C//DTD SVG 20010904//EN"
 "http://www.w3.org/TR/2001/REC-SVG-20010904/DTD/svg10.dtd">
<svg version="1.0" xmlns="http://www.w3.org/2000/svg"
 width="512.000000pt" height="512.000000pt" viewBox="0 0 512.000000 512.000000"
 preserveAspectRatio="xMidYMid meet">

<g transform="translate(0.000000,512.000000) scale(0.100000,-0.100000)"
fill="#000000" stroke="none">
<path d="M3212 4993 c-12 -2 -40 -21 -61 -41 -48 -46 -60 -99 -35 -160 21 -54
46 -70 179 -117 361 -127 723 -384 993 -706 76 -91 246 -338 238 -347 -3 -2
-26 3 -52 12 -60 20 -107 20 -150 0 -65 -31 -98 -108 -75 -176 22 -67 51 -83
306 -168 132 -44 254 -80 273 -80 39 0 78 19 109 52 26 28 183 485 183 532 0
44 -39 106 -80 127 -45 24 -91 24 -139 0 -43 -22 -62 -48 -81 -106 -7 -22 -15
-44 -17 -48 -3 -4 -32 36 -65 90 -258 419 -650 777 -1083 989 -232 113 -377
161 -443 147z"/>
<path d="M1695 4800 c-255 -22 -496 -106 -715 -251 -128 -85 -324 -281 -409
-409 -506 -765 -235 -1780 584 -2188 210 -105 420 -153 665 -153 412 0 768
148 1060 441 316 315 467 719 438 1168 -31 494 -315 945 -755 1201 -251 145
-573 216 -868 191z m189 -584 c44 -18 77 -67 84 -122 l5 -44 97 0 c84 0 102
-3 131 -23 67 -44 88 -135 47 -197 -50 -72 -57 -74 -283 -80 -227 -6 -241 -10
-277 -81 -53 -102 23 -218 142 -219 192 -2 376 -147 425 -335 29 -115 13 -239
-46 -341 -38 -66 -133 -156 -193 -180 -45 -18 -46 -20 -46 -62 0 -85 -52 -149
-129 -159 -87 -12 -159 45 -169 132 l-5 45 -91 0 c-138 0 -194 38 -203 137 -6
63 20 110 77 140 40 21 55 23 222 23 130 0 188 4 212 14 72 30 107 135 68 206
-24 43 -85 80 -134 80 -104 0 -222 48 -301 121 -157 144 -192 377 -84 561 34
58 122 140 185 172 50 25 52 28 52 69 0 117 106 188 214 143z"/>
<path d="M3626 3278 c-2 -7 -7 -60 -9 -118 -7 -127 -36 -276 -83 -423 -20 -60
-34 -110 -32 -112 2 -1 28 -10 58 -20 117 -38 238 -113 327 -203 62 -63 73
-85 73 -143 0 -70 -45 -126 -113 -143 -55 -13 -95 4 -166 69 -79 73 -134 107
-216 135 -60 21 -125 27 -125 11 0 -16 -149 -206 -222 -283 l-73 -77 192 -3
c175 -3 194 -5 219 -24 50 -37 68 -70 68 -124 0 -54 -18 -87 -68 -124 -26 -20
-42 -21 -342 -24 -249 -2 -314 -5 -314 -16 0 -36 69 -147 129 -207 207 -207
516 -210 738 -6 91 84 133 99 201 71 67 -28 95 -72 90 -145 -3 -42 -11 -64
-33 -94 -77 -100 -279 -223 -427 -259 -417 -102 -852 139 -983 544 -10 30 -19
56 -20 58 -2 2 -52 -12 -112 -32 -150 -48 -297 -77 -431 -83 -62 -3 -115 -10
-118 -14 -2 -4 12 -59 32 -121 167 -519 589 -904 1116 -1019 483 -105 994 38
1350 379 314 301 470 664 470 1092 0 166 -15 273 -57 421 -134 472 -519 865
-990 1012 -125 40 -125 40 -129 25z"/>
<path d="M225 1891 c-16 -10 -38 -27 -47 -37 -22 -26 -178 -488 -178 -528 0
-44 39 -106 80 -127 45 -25 91 -24 141 2 39 19 64 58 93 143 5 15 17 1 57 -65
199 -328 511 -648 841 -863 172 -112 450 -242 609 -285 126 -34 231 79 183
197 -21 55 -45 70 -189 122 -457 166 -868 499 -1154 934 -39 60 -69 111 -67
113 3 3 28 -3 56 -12 101 -33 184 -3 215 80 22 57 14 104 -26 150 -27 30 -56
42 -272 114 -133 45 -258 81 -277 81 -19 0 -48 -8 -65 -19z"/>
</g>
</svg>
